<?xml version="1.0" encoding="UTF-8"?>
<svg width="998px" height="582px" viewBox="0 0 998 582" version="1.1" xmlns="http://www.w3.org/2000/svg" xmlns:xlink="http://www.w3.org/1999/xlink">
    <!-- Generator: Sketch 51.3 (57544) - http://www.bohemiancoding.com/sketch -->
    <title>arrow</title>
    <desc>Created with Sketch.</desc>
    <defs></defs>
    <g id="Page-1" stroke="none" stroke-width="1" fill="none" fill-rule="evenodd">
        <g id="arrow" transform="translate(499.000000, 291.000000) rotate(90.000000) translate(-499.000000, -291.000000) translate(208.000000, -208.000000)" fill="#666666" fill-rule="nonzero">
            <path d="M582,499 C582,507.666667 578.666667,515.333333 572,522 L106,988 C99.3333333,994.666667 91.6666667,998 83,998 C74.3333333,998 66.6666667,994.666667 60,988 L10,938 C3.33333333,931.333333 0,923.666667 0,915 C0,906.333333 3.33333333,898.666667 10,892 L403,499 L10,106 C3.33333333,99.3333333 0,91.6666667 0,83 C0,74.3333333 3.33333333,66.6666667 10,60 L60,10 C66.6666667,3.33333333 74.3333333,0 83,0 C91.6666667,0 99.3333333,3.33333333 106,10 L572,476 C578.666667,482.666667 582,490.333333 582,499 Z" id="Shape"></path>
        </g>
    </g>
</svg>